# xmcd
#
# Track frame offsets: 
#        150
#        66765
#        146460
#        215842
#        241232
#
# Disc length: 3254 seconds
#
# Revision: 0
# Processed by: cddbd v1.5.1PL2 Copyright (c) Steve Scherf et al.
# Submitted via: ExactAudioCopy v0.95b3
#
DISCID=480cb405
DTITLE=Various Artist - A House Of Blues Christmas
DYEAR=1995
DGENRE=Christmas/Holiday
TTITLE0=Hosted By Elwood Blues - Part 1
TTITLE1=Hosted By Elwood Blues - Part 2
TTITLE2=Hosted By Elwood Blues - Part 3
TTITLE3=Hosted By Elwood Blues - House Of Blues Breaker
TTITLE4=Hosted By Elwood Blues - Promo
EXTD=
EXTT0=
EXTT1=
EXTT2=
EXTT3=
EXTT4=
PLAYORDER=
